<?xml version="1.0" encoding="UTF-8"?>
<svg xmlns="http://www.w3.org/2000/svg" xmlns:xlink="http://www.w3.org/1999/xlink" width="50px" height="54px" viewBox="0 0 50 54" version="1.1">
<defs>
<linearGradient id="linear0" gradientUnits="userSpaceOnUse" x1="132.685" y1="383.414" x2="377.492" y2="138.607" gradientTransform="matrix(0.141523,0,0,0.141167,-11.137843,-8.807081)">
<stop offset="0" style="stop-color:rgb(90.588235%,10.980392%,49.411765%);stop-opacity:1;"/>
<stop offset="1" style="stop-color:rgb(100%,55.294118%,25.882353%);stop-opacity:1;"/>
</linearGradient>
</defs>
<g id="surface1">
<path style=" stroke:none;fill-rule:nonzero;fill:url(#linear0);" d="M 47.976562 18.199219 C 46.914062 15.828125 45.5 13.722656 43.347656 12.199219 C 42.414062 11.535156 42.019531 11.632812 41.410156 12.609375 C 39.769531 10.703125 38.082031 8.8125 36.5 6.875 C 35.351562 5.480469 34.25 4.039062 33.539062 2.34375 C 33.101562 1.273438 32.621094 1.074219 31.617188 1.695312 C 29.789062 2.8125 28.234375 4.222656 26.960938 5.960938 C 25.105469 8.472656 23.847656 11.238281 23.421875 14.359375 C 23.367188 14.625 23.140625 14.613281 22.925781 14.667969 C 22.359375 14.824219 21.808594 14.992188 21.257812 15.191406 C 20.734375 15.375 20.519531 15.785156 20.691406 16.304688 C 20.859375 16.855469 21.328125 17.054688 21.808594 16.855469 C 23.335938 16.195312 25.246094 16.195312 26.519531 16.347656 C 26.675781 16.390625 26.832031 16.449219 26.988281 16.476562 C 29.054688 16.886719 30.910156 17.71875 32.464844 19.15625 L 32.453125 19.171875 C 32.226562 19.300781 31.941406 19.371094 31.730469 19.285156 C 31.148438 19.058594 30.570312 19.171875 29.988281 19.1875 C 29.507812 19.199219 29.039062 19.328125 28.914062 19.890625 C 28.785156 20.484375 29.125 20.765625 29.605469 21.035156 C 32.535156 22.671875 33.910156 25.214844 34.035156 28.515625 C 34.09375 29.929688 33.726562 31.257812 33.285156 32.570312 C 32.707031 33.527344 32.183594 34.53125 31.320312 35.28125 C 28.800781 37.46875 25.828125 38.101562 22.671875 37.46875 C 18.921875 36.707031 16.386719 34.417969 15.257812 30.707031 C 15.042969 30 15.199219 29.433594 15.652344 28.882812 C 16.359375 28.007812 17.25 27.429688 18.300781 27.0625 C 19.542969 26.726562 20.816406 26.46875 22.121094 26.511719 C 22.402344 26.527344 22.671875 26.414062 22.925781 26.273438 C 24.074219 25.664062 24.992188 24.789062 25.671875 23.691406 C 26.140625 22.941406 25.996094 22.488281 25.246094 22.050781 C 25.148438 21.996094 25.050781 21.925781 24.9375 21.882812 C 22.191406 20.726562 19.769531 19.117188 17.761719 16.914062 C 17.648438 16.785156 17.632812 16.6875 17.605469 16.546875 C 17.335938 15.078125 17.324219 13.609375 17.675781 12.140625 C 17.773438 11.734375 17.804688 11.335938 17.449219 11.042969 C 17.082031 10.714844 16.65625 10.800781 16.261719 10.984375 C 15.171875 11.507812 14.152344 12.128906 13.21875 12.890625 C 12.625 13.371094 12.042969 13.878906 11.449219 14.371094 C 11.25 14.117188 11.265625 13.851562 11.238281 13.597656 C 11.109375 12.523438 11.082031 11.4375 11.109375 10.363281 C 11.136719 9.417969 10.542969 9.050781 9.664062 9.433594 C 9.539062 9.488281 9.410156 9.542969 9.285156 9.628906 C 6.636719 11.40625 4.558594 13.695312 3.015625 16.476562 C 2.871094 16.6875 2.730469 16.898438 2.605469 17.125 C 0.695312 20.765625 0 24.679688 0.0703125 28.757812 C 0.140625 30.59375 0.410156 32.386719 0.917969 34.148438 C 2.460938 39.484375 5.433594 43.90625 9.878906 47.195312 C 15.496094 51.34375 21.835938 52.925781 28.785156 51.910156 C 32.082031 51.429688 35.152344 50.328125 37.984375 48.578125 C 41.507812 46.503906 44.28125 43.707031 46.378906 40.207031 C 48.1875 37.296875 49.304688 34.136719 49.675781 30.734375 C 49.730469 30.238281 49.800781 29.761719 49.832031 29.265625 C 50 25.441406 49.546875 21.726562 47.976562 18.199219 Z M 25.53125 14.515625 C 25.007812 14.472656 25.234375 14.117188 25.289062 13.894531 C 25.785156 11.40625 26.832031 9.148438 28.347656 7.117188 C 28.617188 6.75 28.773438 6.285156 29.367188 5.929688 C 28.390625 9.234375 28.53125 12.355469 29.988281 15.488281 C 28.445312 14.878906 27.003906 14.625 25.53125 14.515625 Z M 30.5 9.871094 C 30.527344 7.765625 31.105469 5.804688 32.226562 3.898438 C 32.988281 5.113281 33.726562 6.253906 34.558594 7.34375 C 36.316406 9.644531 38.351562 11.703125 40.191406 13.933594 C 41.308594 15.304688 42.246094 16.785156 43.148438 18.3125 C 44.125 19.949219 44.210938 21.671875 44.011719 23.476562 C 43.972656 23.875 43.886719 24.269531 43.828125 24.648438 C 43.222656 27.132812 42.03125 29.308594 40.277344 31.269531 C 40.617188 27.132812 39.484375 23.578125 36.285156 20.839844 C 35.679688 19.652344 34.757812 18.707031 33.839844 17.761719 C 31.671875 15.574219 30.457031 12.976562 30.5 9.871094 Z M 34.828125 33.261719 C 36.613281 29.972656 36.03125 24.960938 33.539062 21.996094 C 33.386719 21.8125 33.257812 21.628906 33.128906 21.429688 L 33.214844 21.347656 C 35.183594 21.898438 36.441406 23.28125 37.363281 25.003906 C 38.820312 27.714844 38.664062 30.523438 37.886719 33.375 C 37.757812 33.640625 37.632812 33.910156 37.375 34.109375 C 35.890625 35.222656 34.320312 36.167969 32.578125 36.859375 C 32.480469 36.902344 32.367188 36.917969 32.054688 37 C 33.355469 35.859375 34.277344 34.6875 34.828125 33.261719 Z M 16.882812 25.777344 C 15.597656 26.257812 14.660156 27.175781 13.726562 28.445312 C 13.726562 27.8125 13.714844 27.375 13.726562 26.949219 C 13.769531 25.933594 13.542969 25.695312 12.566406 25.625 C 11.039062 25.539062 9.765625 24.933594 8.730469 23.789062 C 8.292969 23.292969 8.5625 23.125 8.988281 22.996094 L 10.683594 22.589844 C 12.480469 22.40625 14.195312 22.742188 15.835938 23.507812 C 17.648438 24.339844 19.574219 24.621094 21.554688 24.535156 C 21.765625 24.523438 21.976562 24.535156 22.203125 24.605469 C 20.378906 24.820312 18.523438 24.832031 16.882812 25.777344 Z M 15.625 13.398438 L 15.625 15.472656 C 15.625 15.726562 15.523438 15.796875 15.285156 15.742188 C 14.605469 15.585938 13.910156 15.445312 13.089844 15.261719 C 13.925781 14.585938 14.648438 13.949219 15.625 13.398438 Z M 2.390625 29.703125 C 1.839844 27.796875 1.925781 25.890625 2.222656 23.945312 C 2.589844 21.601562 3.410156 19.46875 4.472656 17.378906 C 4.457031 17.351562 4.429688 17.308594 4.414062 17.28125 C 4.429688 17.308594 4.457031 17.335938 4.472656 17.378906 C 5.660156 15.53125 6.933594 13.765625 8.632812 12.339844 C 8.800781 12.199219 8.929688 11.972656 9.253906 11.957031 C 9.339844 12.75 9.425781 13.527344 9.523438 14.316406 C 9.566406 14.613281 9.625 14.921875 9.695312 15.21875 C 10.105469 16.773438 10.359375 16.984375 11.972656 17.011719 C 14.351562 17.054688 16.386719 17.789062 18 19.609375 C 19.175781 20.9375 20.734375 21.753906 22.289062 22.558594 C 21.609375 22.855469 20.40625 22.898438 19.078125 22.644531 C 18.101562 22.460938 17.167969 22.164062 16.261719 21.753906 C 13.96875 20.726562 11.546875 20.457031 9.101562 21.121094 C 8.390625 21.261719 7.542969 21.699219 6.90625 22.066406 C 6.199219 22.476562 6.070312 22.886719 6.453125 23.589844 C 7.445312 25.441406 8.945312 26.710938 11.023438 27.164062 C 11.691406 27.304688 11.902344 27.5 11.945312 28.207031 C 12.183594 32.203125 14.28125 35.125 17.5625 37.226562 C 22.800781 40.585938 28.277344 40.574219 33.867188 38.214844 C 35.566406 37.496094 37.164062 36.5625 38.605469 35.390625 C 38.976562 35.097656 39.328125 34.757812 39.683594 34.433594 C 41.070312 33.375 42.132812 32.03125 43.09375 30.621094 C 43.914062 29.421875 44.59375 28.136719 45.117188 26.554688 C 45.273438 27.769531 45.117188 28.773438 44.988281 29.761719 C 44.507812 33.429688 43.09375 36.707031 40.773438 39.597656 L 39.667969 40.757812 C 37.957031 42.519531 35.917969 43.835938 33.695312 44.90625 C 30.652344 46.175781 27.496094 46.757812 24.199219 46.644531 C 13.984375 46.289062 5.050781 39.273438 2.460938 29.902344 C 2.449219 29.832031 2.421875 29.773438 2.390625 29.703125 Z M 48.019531 29.238281 C 48.003906 29.492188 48.019531 29.746094 48.003906 30.015625 C 47.679688 32.582031 47.027344 35.054688 45.882812 37.382812 C 45.585938 37.988281 45.257812 38.582031 44.949219 39.191406 C 42.824219 42.675781 39.964844 45.402344 36.457031 47.476562 C 34.25 48.605469 31.96875 49.523438 29.523438 49.988281 C 20.027344 51.808594 10.558594 47.785156 5.378906 39.710938 C 5.277344 39.558594 5.207031 39.402344 5.066406 39.148438 C 5.449219 39.191406 5.546875 39.429688 5.703125 39.597656 C 9.425781 43.835938 14.023438 46.585938 19.53125 47.828125 C 24.355469 48.917969 29.097656 48.578125 33.710938 46.796875 C 34.164062 46.628906 34.417969 46.53125 34.984375 46.25 C 35.265625 46.105469 35.265625 46.09375 35.394531 46.035156 C 38.15625 44.667969 40.476562 42.746094 42.386719 40.332031 C 44.351562 38.046875 45.554688 35.363281 46.277344 32.46875 C 46.800781 30.367188 47.085938 28.234375 46.957031 26.0625 C 46.914062 24.535156 46.703125 23.039062 46.277344 21.570312 C 45.839844 20.046875 45.484375 18.480469 45.160156 16.914062 C 45.9375 17.914062 46.460938 19.046875 46.859375 20.230469 C 47.878906 23.152344 48.1875 26.160156 48.019531 29.238281 Z M 48.019531 29.238281 "/>
</g>
</svg>
