<?xml version="1.0" encoding="UTF-8"?>
<svg xmlns="http://www.w3.org/2000/svg" xmlns:xlink="http://www.w3.org/1999/xlink" width="50px" height="52px" viewBox="0 0 50 52" version="1.1">
<g id="surface1">
<path style=" stroke:none;fill-rule:nonzero;fill:rgb(10.196078%,10.196078%,10.196078%);fill-opacity:1;" d="M 41.644531 12.550781 L 41.640625 12.550781 L 34.039062 15.308594 L 35.441406 7.367188 L 35.441406 7.363281 L 29.234375 2.167969 L 29.230469 2.164062 L 21.613281 4.929688 L 21.609375 4.929688 L 20.203125 12.875 L 14.007812 7.691406 L 14.003906 7.691406 L 6.386719 10.453125 L 6.382812 10.457031 L 4.976562 18.414062 L 4.972656 18.421875 L 11.171875 23.605469 L 3.574219 26.363281 L 3.570312 26.367188 L 2.160156 34.328125 L 2.160156 34.332031 L 8.371094 39.527344 L 8.371094 39.53125 L 15.976562 36.769531 L 14.574219 44.710938 L 14.570312 44.714844 L 20.78125 49.910156 L 20.785156 49.914062 L 28.402344 47.148438 L 28.40625 47.148438 L 29.8125 39.203125 L 36.007812 44.386719 L 36.011719 44.390625 L 43.628906 41.625 L 43.632812 41.621094 L 45.039062 33.664062 L 45.039062 33.660156 L 38.839844 28.472656 L 46.441406 25.714844 L 46.445312 25.710938 L 47.851562 17.753906 L 47.855469 17.746094 Z M 23.617188 33.996094 L 31.203125 31.246094 L 29.800781 39.171875 Z M 26.398438 18.082031 L 18.8125 20.835938 L 20.214844 12.90625 Z M 11.203125 23.613281 L 18.789062 20.859375 L 17.386719 28.785156 Z M 23.585938 33.992188 L 16 36.746094 L 17.398438 28.816406 Z M 17.402344 28.800781 L 18.808594 20.851562 L 26.410156 18.09375 L 32.609375 23.28125 L 31.207031 31.226562 L 23.601562 33.984375 Z M 32.625 23.292969 L 38.808594 28.464844 L 31.222656 31.21875 Z M 26.429688 18.085938 L 34.015625 15.332031 L 32.613281 23.261719 Z M 21.621094 4.941406 L 29.226562 2.183594 L 35.425781 7.367188 L 34.019531 15.316406 L 26.414062 18.074219 L 20.21875 12.886719 Z M 4.992188 18.414062 L 6.398438 10.46875 L 14 7.707031 L 20.199219 12.894531 L 18.792969 20.839844 L 11.191406 23.601562 Z M 8.375 39.511719 L 2.179688 34.324219 L 3.582031 26.378906 L 11.1875 23.617188 L 17.386719 28.804688 L 15.980469 36.75 L 8.378906 39.511719 Z M 28.390625 47.136719 L 20.789062 49.894531 L 14.589844 44.710938 L 15.996094 36.761719 L 23.597656 34.003906 L 29.796875 39.191406 Z M 45.023438 33.664062 L 43.617188 41.609375 L 36.015625 44.371094 L 29.816406 39.183594 L 31.21875 31.238281 L 38.824219 28.476562 Z M 46.429688 25.699219 L 38.828125 28.460938 L 32.628906 23.273438 L 34.035156 15.328125 L 41.636719 12.566406 L 47.835938 17.753906 Z M 46.429688 25.699219 "/>
<path style=" stroke:none;fill-rule:nonzero;fill:rgb(39.215686%,59.215686%,56.862745%);fill-opacity:1;" d="M 46.519531 19.328125 L 27.902344 3.75 C 27.027344 3.019531 26.914062 1.722656 27.648438 0.851562 C 28.378906 -0.0195312 29.679688 -0.132812 30.554688 0.597656 L 49.171875 16.175781 C 50.042969 16.90625 50.15625 18.203125 49.425781 19.074219 C 49.035156 19.539062 48.453125 19.808594 47.84375 19.808594 C 47.375 19.808594 46.90625 19.648438 46.519531 19.328125 Z M 46.519531 19.328125 "/>
<path style=" stroke:none;fill-rule:nonzero;fill:rgb(93.72549%,77.254902%,9.803922%);fill-opacity:1;" d="M 20.496094 51.960938 C 19.652344 51.960938 18.859375 51.441406 18.554688 50.601562 C 18.171875 49.53125 18.726562 48.351562 19.800781 47.96875 L 42.925781 39.679688 C 43.996094 39.296875 45.179688 39.851562 45.566406 40.921875 C 45.949219 41.988281 45.394531 43.167969 44.320312 43.550781 L 21.195312 51.839844 C 20.964844 51.921875 20.730469 51.960938 20.496094 51.960938 Z M 20.496094 51.960938 "/>
<path style=" stroke:none;fill-rule:nonzero;fill:rgb(63.529412%,10.980392%,23.921569%);fill-opacity:1;" d="M 2.171875 36.621094 C 2.054688 36.621094 1.933594 36.613281 1.8125 36.589844 C 0.691406 36.394531 -0.0585938 35.328125 0.136719 34.210938 L 4.359375 10.109375 C 4.554688 8.988281 5.621094 8.238281 6.742188 8.433594 C 7.867188 8.628906 8.617188 9.695312 8.421875 10.816406 L 4.203125 34.917969 C 4.027344 35.917969 3.15625 36.621094 2.171875 36.621094 Z M 2.171875 36.621094 "/>
<path style=" stroke:none;fill-rule:nonzero;fill:rgb(2.352941%,54.901961%,72.941176%);fill-opacity:1;" d="M 12.597656 17.710938 C 12.480469 17.710938 12.359375 17.703125 12.238281 17.679688 C 11.117188 17.484375 10.367188 16.417969 10.5625 15.296875 L 11.96875 7.339844 C 12.167969 6.222656 13.238281 5.476562 14.359375 5.671875 C 15.480469 5.871094 16.230469 6.9375 16.035156 8.054688 L 14.625 16.011719 C 14.449219 17.007812 13.578125 17.710938 12.597656 17.710938 Z M 12.597656 17.710938 "/>
<path style=" stroke:none;fill-rule:nonzero;fill:rgb(32.54902%,7.058824%,6.27451%);fill-opacity:1;" d="M 8.378906 41.578125 C 8.257812 41.578125 8.136719 41.566406 8.015625 41.546875 C 6.894531 41.347656 6.144531 40.28125 6.34375 39.164062 L 7.75 31.207031 C 7.949219 30.089844 9.015625 29.34375 10.140625 29.539062 C 11.261719 29.738281 12.011719 30.804688 11.8125 31.921875 L 10.40625 39.878906 C 10.230469 40.875 9.359375 41.578125 8.378906 41.578125 Z M 8.378906 41.578125 "/>
<path style=" stroke:none;fill-rule:nonzero;fill:rgb(31.372549%,62.352941%,30.588235%);fill-opacity:1;" d="M 27.820312 12.1875 C 27.351562 12.1875 26.882812 12.027344 26.496094 11.703125 L 20.289062 6.511719 C 19.414062 5.78125 19.300781 4.484375 20.035156 3.613281 C 20.765625 2.742188 22.070312 2.628906 22.941406 3.359375 L 29.148438 8.554688 C 30.019531 9.285156 30.132812 10.582031 29.402344 11.449219 C 29.007812 11.917969 28.429688 12.1875 27.820312 12.1875 Z M 27.820312 12.1875 "/>
<path style=" stroke:none;fill-rule:nonzero;fill:rgb(6.27451%,43.137255%,40%);fill-opacity:1;" d="M 46.4375 27.761719 C 45.96875 27.761719 45.5 27.605469 45.113281 27.28125 L 38.90625 22.089844 C 38.03125 21.359375 37.917969 20.0625 38.652344 19.191406 C 39.386719 18.320312 40.6875 18.207031 41.558594 18.9375 L 47.765625 24.128906 C 48.636719 24.859375 48.75 26.15625 48.019531 27.027344 C 47.625 27.496094 47.046875 27.765625 46.4375 27.761719 Z M 46.4375 27.761719 "/>
<path style=" stroke:none;fill-rule:nonzero;fill:rgb(2.352941%,54.901961%,72.941176%);fill-opacity:1;" d="M 37.417969 38.480469 C 36.578125 38.480469 35.785156 37.964844 35.480469 37.128906 C 35.089844 36.058594 35.640625 34.878906 36.710938 34.492188 L 44.324219 31.730469 C 45.398438 31.339844 46.578125 31.890625 46.96875 32.957031 C 47.359375 34.023438 46.808594 35.207031 45.738281 35.59375 L 38.125 38.355469 C 37.898438 38.441406 37.660156 38.480469 37.417969 38.480469 Z M 37.417969 38.480469 "/>
<path style=" stroke:none;fill-rule:nonzero;fill:rgb(57.254902%,74.509804%,68.627451%);fill-opacity:1;" d="M 23.597656 36.050781 C 23.132812 36.050781 22.660156 35.894531 22.273438 35.570312 L 16.070312 30.378906 C 15.195312 29.648438 15.082031 28.351562 15.8125 27.480469 C 16.546875 26.609375 17.847656 26.496094 18.71875 27.226562 L 24.925781 32.417969 C 25.800781 33.148438 25.914062 34.445312 25.179688 35.316406 C 24.789062 35.785156 24.210938 36.050781 23.597656 36.050781 Z M 23.597656 36.050781 "/>
<path style=" stroke:none;fill-rule:nonzero;fill:rgb(29.411765%,38.823529%,35.686275%);fill-opacity:1;" d="M 31.214844 33.289062 C 31.097656 33.289062 30.976562 33.277344 30.855469 33.257812 C 29.730469 33.058594 28.984375 31.992188 29.179688 30.875 L 30.589844 22.917969 C 30.785156 21.800781 31.855469 21.054688 32.976562 21.25 C 34.101562 21.449219 34.847656 22.515625 34.652344 23.632812 L 33.242188 31.589844 C 33.066406 32.585938 32.199219 33.289062 31.214844 33.289062 Z M 31.214844 33.289062 "/>
<path style=" stroke:none;fill-rule:nonzero;fill:rgb(72.54902%,73.72549%,38.823529%);fill-opacity:1;" d="M 18.800781 22.90625 C 17.957031 22.90625 17.167969 22.386719 16.863281 21.550781 C 16.472656 20.484375 17.023438 19.300781 18.09375 18.914062 L 25.707031 16.152344 C 26.777344 15.761719 27.960938 16.3125 28.351562 17.382812 C 28.742188 18.449219 28.191406 19.628906 27.117188 20.015625 L 19.507812 22.78125 C 19.28125 22.863281 19.042969 22.90625 18.800781 22.90625 Z M 18.800781 22.90625 "/>
<path style=" stroke:none;fill-rule:nonzero;fill:rgb(89.019608%,54.509804%,14.509804%);fill-opacity:1;" d="M 14.582031 46.769531 C 13.738281 46.769531 12.949219 46.25 12.640625 45.417969 C 12.253906 44.347656 12.804688 43.167969 13.875 42.78125 L 21.488281 40.015625 C 22.558594 39.628906 23.742188 40.179688 24.132812 41.246094 C 24.519531 42.3125 23.96875 43.496094 22.898438 43.882812 L 15.285156 46.644531 C 15.054688 46.730469 14.816406 46.769531 14.582031 46.769531 Z M 14.582031 46.769531 "/>
</g>
</svg>
