<?xml version="1.0" encoding="UTF-8"?>
<svg xmlns="http://www.w3.org/2000/svg" xmlns:xlink="http://www.w3.org/1999/xlink" width="50px" height="50px" viewBox="0 0 50 50" version="1.1">
<g id="surface1">
<rect x="0" y="0" width="50" height="50" style="fill:rgb(100%,100%,100%);fill-opacity:1;stroke:none;"/>
<path style=" stroke:none;fill-rule:evenodd;fill:rgb(80%,13.333333%,16.078431%);fill-opacity:1;" d="M 24.292969 48.804688 L 1.027344 25.703125 C 0.839844 25.515625 0.734375 25.265625 0.734375 25 C 0.734375 24.734375 0.839844 24.484375 1.027344 24.296875 L 24.292969 1.195312 C 24.683594 0.808594 25.316406 0.808594 25.707031 1.195312 L 48.972656 24.296875 C 49.160156 24.484375 49.265625 24.734375 49.265625 25 C 49.265625 25.265625 49.160156 25.515625 48.972656 25.703125 L 25.707031 48.804688 C 25.316406 49.191406 24.683594 49.191406 24.292969 48.804688 Z M 24.292969 48.804688 "/>
<path style=" stroke:none;fill-rule:evenodd;fill:rgb(100%,100%,100%);fill-opacity:1;" d="M 15.824219 14.789062 L 33.738281 14.789062 L 33.738281 17.367188 L 29.128906 17.367188 L 29.128906 36.105469 L 26.28125 36.105469 L 26.28125 17.367188 L 23.546875 17.367188 L 23.546875 36.105469 L 20.679688 36.105469 L 20.679688 17.367188 L 15.824219 17.367188 Z M 15.824219 14.789062 "/>
<path style="fill:none;stroke-width:3.714;stroke-linecap:butt;stroke-linejoin:miter;stroke:rgb(100%,100%,100%);stroke-opacity:1;stroke-miterlimit:2.613;" d="M 93.17042 172.727447 L 19.516545 99.58558 C 18.673238 98.742273 18.191348 97.597784 18.191348 96.408118 C 18.191348 95.203393 18.673238 94.058904 19.516545 93.230656 L 93.17042 20.07373 C 94.93233 18.326879 97.82367 18.326879 99.58558 20.07373 L 173.239455 93.230656 C 174.082763 94.058904 174.564653 95.203393 174.564653 96.408118 C 174.564653 97.597784 174.082763 98.742273 173.239455 99.58558 L 99.58558 172.727447 C 97.82367 174.474298 94.93233 174.474298 93.17042 172.727447 Z M 93.17042 172.727447 " transform="matrix(0.259395,0,0,0.259395,0,0)"/>
<path style=" stroke:none;fill-rule:evenodd;fill:rgb(100%,100%,100%);fill-opacity:1;" d="M 13.753906 19.589844 C 16.71875 19.589844 19.140625 22.011719 19.140625 24.976562 C 19.140625 27.945312 16.71875 30.367188 13.753906 30.367188 C 10.785156 30.367188 8.367188 27.945312 8.367188 24.976562 C 8.367188 22.011719 10.785156 19.589844 13.753906 19.589844 Z M 36.082031 19.589844 C 39.046875 19.589844 41.46875 22.011719 41.46875 24.976562 C 41.46875 27.945312 39.046875 30.367188 36.082031 30.367188 C 33.113281 30.367188 30.691406 27.945312 30.691406 24.976562 C 30.691406 22.011719 33.113281 19.589844 36.082031 19.589844 Z M 36.082031 19.589844 "/>
<path style=" stroke:none;fill-rule:evenodd;fill:rgb(80%,13.333333%,16.078431%);fill-opacity:1;" d="M 13.753906 22.082031 C 15.347656 22.082031 16.648438 23.382812 16.648438 24.976562 C 16.648438 26.570312 15.347656 27.871094 13.753906 27.871094 C 12.160156 27.871094 10.859375 26.570312 10.859375 24.976562 C 10.859375 23.382812 12.160156 22.082031 13.753906 22.082031 Z M 36.074219 22.082031 C 37.667969 22.082031 38.96875 23.382812 38.96875 24.976562 C 38.96875 26.570312 37.667969 27.871094 36.074219 27.871094 C 34.480469 27.871094 33.179688 26.570312 33.179688 24.976562 C 33.179688 23.382812 34.480469 22.082031 36.074219 22.082031 Z M 36.074219 22.082031 "/>
</g>
</svg>
